<svg xmlns="http://www.w3.org/2000/svg" width="100" height="100" viewBox="0 0 100 100"><path fill="#EDEDED" d="M50 0c27.614 0 50 22.386 50 50 0 27.615-22.386 50-50 50s-50-22.385-50-50c0-27.614 22.386-50 50-50z"/><path fill="#D0994C" d="M70 51h29.975l.025-1c0-1.688-.086-3.355-.25-5h-29.75v6z"/><path fill="#F1CD9A" d="M48.467 25c14.138 0 24.533 10.186 24.533 22.75s-15.107 29.25-23.467 29.25c-8.401 0-24.533-16.686-24.533-29.25s9.328-22.75 23.467-22.75z"/><path fill="#E9AC55" d="M49 32c10.493 0 19 7.164 19 16 0 8.837-8.507 16-19 16s-19-7.162-19-16c0-8.835 8.507-16 19-16z"/><path fill="#E8AB55" d="M65 39h3c1.104 0 2 .896 2 2v14c0 1.105-.896 2-2 2h-3v-18z"/><path fill="#F4B459" d="M35 34h-1c-1.104 0-2 .896-2 2v24c0 1.105.896 2 2 2h1c1.104 0 2-.895 2-2v-24c0-1.104-.896-2-2-2zm28 0h-1c-1.104 0-2 .896-2 2v24c0 1.105.896 2 2 2h1c1.104 0 2-.895 2-2v-24c0-1.104-.896-2-2-2zm-21-4h-1c-1.104 0-2 .896-2 2v32c0 1.105.896 2 2 2h1c1.104 0 2-.895 2-2v-32c0-1.104-.896-2-2-2zm14 0h-1c-1.104 0-2 .896-2 2v32c0 1.105.896 2 2 2h1c1.104 0 2-.895 2-2v-32c0-1.104-.896-2-2-2zm-7-2h-1c-1.104 0-2 .896-2 2v36c0 1.105.896 2 2 2h1c1.104 0 2-.895 2-2v-36c0-1.104-.896-2-2-2z"/><path fill="#F5DCB9" d="M48.556 35c11.782 0 20.444 5.403 20.444 17 0-11.597-8.662-21-20.444-21s-19.556 9.403-19.556 21c0-11.597 7.773-17 19.556-17z"/><path fill="#F4D6AA" d="M30.622 44.003c2.854-6.096 9.313-9.003 17.934-9.003 9.027 0 16.207 3.185 19.078 9.885-.253-1.079-.629-2.121-1.125-3.109-.256-.485-.525-.961-.816-1.421-3.221-4.977-9.489-8.355-16.693-8.355-8.852 0-16.267 5.105-18.378 12.003z"/><path fill="#E3A753" d="M70 51h2.684c.201-1.103.316-2.192.316-3.25 0-.932-.063-1.848-.176-2.75h-2.824v6z"/><g fill="#FADAAC"><path d="M32 40.412v1.236c1.295-1.764 2.98-3.165 5-4.218v-1.43c0-.375-.109-.722-.289-1.022-1.889 1.484-3.481 3.318-4.711 5.434zM44 32c0-.163-.024-.318-.061-.469-1.779.411-3.434 1.051-4.939 1.901v3.107c1.523-.572 3.197-.979 5-1.23v-3.309zM58 33.28c-1.528-.793-3.174-1.404-4.927-1.787-.043.163-.073.331-.073.507v3.284c1.78.233 3.45.623 5 1.155v-3.159zM65 40.827v-1.466c-1.271-1.769-2.801-3.324-4.564-4.593-.269.34-.436.765-.436 1.232v1.235c1.947.909 3.626 2.11 5 3.592zM51 35.089v-3.939c-.799-.091-1.611-.15-2.444-.15-.878 0-1.725.068-2.556.169v3.931c.831-.06 1.678-.1 2.556-.1.833 0 1.645.035 2.444.089z"/></g></svg>